<svg width="714" height="458" viewBox="0 0 714 458" fill="none" xmlns="http://www.w3.org/2000/svg">
<rect x="0.379883" width="713" height="458" fill="#395485"/>
<rect x="117" y="13.9688" width="62.2563" height="80.8235" fill="#F5F2E9"/>
<rect x="180.749" y="13.9688" width="62.2563" height="80.8235" fill="#F5F2E9"/>
<rect x="244.498" y="13.9688" width="62.2563" height="80.8235" fill="#F5F2E9"/>
<rect x="308.246" y="13.9688" width="62.2563" height="80.8235" fill="#F5F2E9"/>
<rect x="371.995" y="13.9688" width="62.2563" height="80.8235" fill="#F5F2E9"/>
<rect x="435.744" y="13.9688" width="62.2563" height="80.8235" fill="#F5F2E9"/>
<path d="M626.58 94.6055V74.9575L627.092 72.2055H631.476V94.6055H626.58ZM621.972 79.8855V75.2135C622.548 75.2561 623.135 75.1281 623.732 74.8295C624.351 74.5308 624.948 74.1361 625.524 73.6455C626.121 73.1335 626.644 72.6321 627.092 72.1415L630.356 75.3095C629.567 76.2055 628.724 77.0268 627.828 77.7735C626.932 78.4988 626.004 79.0641 625.044 79.4695C624.084 79.8535 623.06 79.9921 621.972 79.8855Z" fill="#395485"/>
<path d="M626.58 94.6055V74.9575L627.092 72.2055H631.476V94.6055H626.58ZM621.972 79.8855V75.2135C622.548 75.2561 623.135 75.1281 623.732 74.8295C624.351 74.5308 624.948 74.1361 625.524 73.6455C626.121 73.1335 626.644 72.6321 627.092 72.1415L630.356 75.3095C629.567 76.2055 628.724 77.0268 627.828 77.7735C626.932 78.4988 626.004 79.0641 625.044 79.4695C624.084 79.8535 623.06 79.9921 621.972 79.8855Z" fill="#395485"/>
<path d="M619.602 138.531V134.819C619.602 134.243 619.816 133.582 620.242 132.835C620.669 132.067 621.256 131.289 622.002 130.499C622.77 129.71 623.634 128.985 624.594 128.323L627.41 126.403C627.837 126.126 628.264 125.806 628.69 125.443C629.117 125.059 629.469 124.654 629.746 124.227C630.024 123.779 630.162 123.331 630.162 122.883C630.162 122.414 630.045 121.998 629.81 121.635C629.597 121.251 629.266 120.963 628.818 120.771C628.392 120.558 627.826 120.451 627.122 120.451C626.589 120.451 626.109 120.569 625.682 120.803C625.277 121.017 624.936 121.315 624.658 121.699C624.402 122.062 624.21 122.467 624.082 122.915L618.77 122.019C618.984 120.91 619.442 119.875 620.146 118.915C620.872 117.955 621.821 117.187 622.994 116.611C624.189 116.014 625.554 115.715 627.09 115.715C628.84 115.715 630.333 116.025 631.57 116.643C632.808 117.241 633.757 118.073 634.418 119.139C635.101 120.206 635.442 121.443 635.442 122.851C635.442 124.345 635.026 125.635 634.194 126.723C633.384 127.811 632.306 128.814 630.962 129.731L628.498 131.427C627.986 131.769 627.517 132.153 627.09 132.579C626.664 133.006 626.29 133.486 625.97 134.019H635.698V138.531H619.602Z" fill="#395485"/>
<path d="M619.602 138.531V134.819C619.602 134.243 619.816 133.582 620.242 132.835C620.669 132.067 621.256 131.289 622.002 130.499C622.77 129.71 623.634 128.985 624.594 128.323L627.41 126.403C627.837 126.126 628.264 125.806 628.69 125.443C629.117 125.059 629.469 124.654 629.746 124.227C630.024 123.779 630.162 123.331 630.162 122.883C630.162 122.414 630.045 121.998 629.81 121.635C629.597 121.251 629.266 120.963 628.818 120.771C628.392 120.558 627.826 120.451 627.122 120.451C626.589 120.451 626.109 120.569 625.682 120.803C625.277 121.017 624.936 121.315 624.658 121.699C624.402 122.062 624.21 122.467 624.082 122.915L618.77 122.019C618.984 120.91 619.442 119.875 620.146 118.915C620.872 117.955 621.821 117.187 622.994 116.611C624.189 116.014 625.554 115.715 627.09 115.715C628.84 115.715 630.333 116.025 631.57 116.643C632.808 117.241 633.757 118.073 634.418 119.139C635.101 120.206 635.442 121.443 635.442 122.851C635.442 124.345 635.026 125.635 634.194 126.723C633.384 127.811 632.306 128.814 630.962 129.731L628.498 131.427C627.986 131.769 627.517 132.153 627.09 132.579C626.664 133.006 626.29 133.486 625.97 134.019H635.698V138.531H619.602Z" fill="#395485"/>
<rect x="203.166" y="203.629" width="60.23" height="80.82" transform="rotate(-90 203.166 203.629)" fill="#F5F2E9"/>
<rect x="284.986" y="203.629" width="60.23" height="80.82" transform="rotate(-90 284.986 203.629)" fill="#F5F2E9"/>
<rect x="203.166" y="264.859" width="60.23" height="80.82" transform="rotate(-90 203.166 264.859)" fill="#F5F2E9"/>
<rect x="284.986" y="264.859" width="60.23" height="80.82" transform="rotate(-90 284.986 264.859)" fill="#F5F2E9"/>
<rect x="203.166" y="354.629" width="60.23" height="80.82" transform="rotate(-90 203.166 354.629)" fill="#F5F2E9"/>
<rect x="284.986" y="354.629" width="60.23" height="80.82" transform="rotate(-90 284.986 354.629)" fill="#F5F2E9"/>
<rect x="203.166" y="415.859" width="60.23" height="80.82" transform="rotate(-90 203.166 415.859)" fill="#F5F2E9"/>
<rect x="284.986" y="415.859" width="60.23" height="80.82" transform="rotate(-90 284.986 415.859)" fill="#F5F2E9"/>
<path d="M240.273 184.672V165.024L240.785 162.272H245.169V184.672H240.273ZM235.665 169.952V165.28C236.241 165.323 236.828 165.195 237.425 164.896C238.044 164.597 238.641 164.203 239.217 163.712C239.814 163.2 240.337 162.699 240.785 162.208L244.049 165.376C243.26 166.272 242.417 167.093 241.521 167.84C240.625 168.565 239.697 169.131 238.737 169.536C237.777 169.92 236.753 170.059 235.665 169.952Z" fill="#395485"/>
<path d="M233.295 246.508V242.796C233.295 242.22 233.509 241.558 233.935 240.812C234.362 240.044 234.949 239.265 235.695 238.476C236.463 237.686 237.327 236.961 238.287 236.3L241.103 234.38C241.53 234.102 241.957 233.782 242.383 233.42C242.81 233.036 243.162 232.63 243.439 232.204C243.717 231.756 243.855 231.308 243.855 230.86C243.855 230.39 243.738 229.974 243.503 229.612C243.29 229.228 242.959 228.94 242.511 228.748C242.085 228.534 241.519 228.428 240.815 228.428C240.282 228.428 239.802 228.545 239.375 228.78C238.97 228.993 238.629 229.292 238.351 229.676C238.095 230.038 237.903 230.444 237.775 230.892L232.463 229.996C232.677 228.886 233.135 227.852 233.839 226.892C234.565 225.932 235.514 225.164 236.687 224.588C237.882 223.99 239.247 223.692 240.783 223.692C242.533 223.692 244.026 224.001 245.263 224.62C246.501 225.217 247.45 226.049 248.111 227.116C248.794 228.182 249.135 229.42 249.135 230.828C249.135 232.321 248.719 233.612 247.887 234.7C247.077 235.788 245.999 236.79 244.655 237.708L242.191 239.404C241.679 239.745 241.21 240.129 240.783 240.556C240.357 240.982 239.983 241.462 239.663 241.996H249.391V246.508H233.295Z" fill="#395485"/>
<path d="M323.018 183.384C321.61 183.384 320.319 183.171 319.146 182.744C317.994 182.317 317.034 181.699 316.266 180.888C315.519 180.056 315.028 179.043 314.794 177.848L319.658 176.664C319.786 176.92 319.946 177.229 320.138 177.592C320.351 177.955 320.66 178.275 321.066 178.552C321.471 178.808 322.015 178.936 322.698 178.936C323.594 178.936 324.298 178.701 324.81 178.232C325.322 177.741 325.578 177.101 325.578 176.312C325.578 175.843 325.46 175.405 325.226 175C325.012 174.573 324.607 174.243 324.01 174.008C323.434 173.752 322.612 173.624 321.546 173.624H319.882V170.296H321.354C322.612 170.296 323.796 170.456 324.906 170.776C326.036 171.075 327.039 171.523 327.914 172.12C328.788 172.717 329.471 173.421 329.962 174.232C330.474 175.043 330.73 175.96 330.73 176.984C330.73 178.349 330.367 179.512 329.642 180.472C328.916 181.432 327.967 182.157 326.794 182.648C325.62 183.139 324.362 183.384 323.018 183.384ZM319.882 172.568V169.464H321.546C322.89 169.464 323.839 169.24 324.394 168.792C324.948 168.344 325.226 167.736 325.226 166.968C325.226 166.52 325.119 166.125 324.906 165.784C324.692 165.443 324.394 165.176 324.01 164.984C323.626 164.771 323.188 164.664 322.698 164.664C322.335 164.664 321.962 164.728 321.578 164.856C321.194 164.984 320.842 165.208 320.522 165.528C320.202 165.848 319.956 166.307 319.786 166.904L314.986 165.752C315.22 164.536 315.732 163.523 316.522 162.712C317.332 161.88 318.292 161.261 319.402 160.856C320.511 160.429 321.652 160.216 322.826 160.216C324.234 160.216 325.503 160.483 326.634 161.016C327.786 161.528 328.692 162.253 329.354 163.192C330.036 164.109 330.378 165.187 330.378 166.424C330.378 167.491 330.111 168.408 329.578 169.176C329.066 169.944 328.372 170.584 327.498 171.096C326.644 171.587 325.684 171.96 324.618 172.216C323.551 172.451 322.463 172.568 321.354 172.568H319.882Z" fill="#395485"/>
<path d="M323.656 246.508V242.572H313.192V238.444L322.984 224.108H328.52V238.188H332.104V242.572H328.52V246.508H323.656ZM318.344 238.188H323.656V230.412L318.344 238.188Z" fill="#395485"/>
<path d="M240.273 335.672V316.024L240.785 313.272H245.169V335.672H240.273ZM235.665 320.952V316.28C236.241 316.323 236.828 316.195 237.425 315.896C238.044 315.597 238.641 315.203 239.217 314.712C239.814 314.2 240.337 313.699 240.785 313.208L244.049 316.376C243.26 317.272 242.417 318.093 241.521 318.84C240.625 319.565 239.697 320.131 238.737 320.536C237.777 320.92 236.753 321.059 235.665 320.952Z" fill="#395485"/>
<path d="M233.295 397.508V393.796C233.295 393.22 233.509 392.558 233.935 391.812C234.362 391.044 234.949 390.265 235.695 389.476C236.463 388.686 237.327 387.961 238.287 387.3L241.103 385.38C241.53 385.102 241.957 384.782 242.383 384.42C242.81 384.036 243.162 383.63 243.439 383.204C243.717 382.756 243.855 382.308 243.855 381.86C243.855 381.39 243.738 380.974 243.503 380.612C243.29 380.228 242.959 379.94 242.511 379.748C242.085 379.534 241.519 379.428 240.815 379.428C240.282 379.428 239.802 379.545 239.375 379.78C238.97 379.993 238.629 380.292 238.351 380.676C238.095 381.038 237.903 381.444 237.775 381.892L232.463 380.996C232.677 379.886 233.135 378.852 233.839 377.892C234.565 376.932 235.514 376.164 236.687 375.588C237.882 374.99 239.247 374.692 240.783 374.692C242.533 374.692 244.026 375.001 245.263 375.62C246.501 376.217 247.45 377.049 248.111 378.116C248.794 379.182 249.135 380.42 249.135 381.828C249.135 383.321 248.719 384.612 247.887 385.7C247.077 386.788 245.999 387.79 244.655 388.708L242.191 390.404C241.679 390.745 241.21 391.129 240.783 391.556C240.357 391.982 239.983 392.462 239.663 392.996H249.391V397.508H233.295Z" fill="#395485"/>
<path d="M323.018 334.384C321.61 334.384 320.319 334.171 319.146 333.744C317.994 333.317 317.034 332.699 316.266 331.888C315.519 331.056 315.028 330.043 314.794 328.848L319.658 327.664C319.786 327.92 319.946 328.229 320.138 328.592C320.351 328.955 320.66 329.275 321.066 329.552C321.471 329.808 322.015 329.936 322.698 329.936C323.594 329.936 324.298 329.701 324.81 329.232C325.322 328.741 325.578 328.101 325.578 327.312C325.578 326.843 325.46 326.405 325.226 326C325.012 325.573 324.607 325.243 324.01 325.008C323.434 324.752 322.612 324.624 321.546 324.624H319.882V321.296H321.354C322.612 321.296 323.796 321.456 324.906 321.776C326.036 322.075 327.039 322.523 327.914 323.12C328.788 323.717 329.471 324.421 329.962 325.232C330.474 326.043 330.73 326.96 330.73 327.984C330.73 329.349 330.367 330.512 329.642 331.472C328.916 332.432 327.967 333.157 326.794 333.648C325.62 334.139 324.362 334.384 323.018 334.384ZM319.882 323.568V320.464H321.546C322.89 320.464 323.839 320.24 324.394 319.792C324.948 319.344 325.226 318.736 325.226 317.968C325.226 317.52 325.119 317.125 324.906 316.784C324.692 316.443 324.394 316.176 324.01 315.984C323.626 315.771 323.188 315.664 322.698 315.664C322.335 315.664 321.962 315.728 321.578 315.856C321.194 315.984 320.842 316.208 320.522 316.528C320.202 316.848 319.956 317.307 319.786 317.904L314.986 316.752C315.22 315.536 315.732 314.523 316.522 313.712C317.332 312.88 318.292 312.261 319.402 311.856C320.511 311.429 321.652 311.216 322.826 311.216C324.234 311.216 325.503 311.483 326.634 312.016C327.786 312.528 328.692 313.253 329.354 314.192C330.036 315.109 330.378 316.187 330.378 317.424C330.378 318.491 330.111 319.408 329.578 320.176C329.066 320.944 328.372 321.584 327.498 322.096C326.644 322.587 325.684 322.96 324.618 323.216C323.551 323.451 322.463 323.568 321.354 323.568H319.882Z" fill="#395485"/>
<path d="M323.656 397.508V393.572H313.192V389.444L322.984 375.108H328.52V389.188H332.104V393.572H328.52V397.508H323.656ZM318.344 389.188H323.656V381.412L318.344 389.188Z" fill="#395485"/>
<rect x="591" y="65.1172" width="52.1179" height="80.82" transform="rotate(-90 591 65.1172)" fill="#F5F2E9"/>
<rect x="591" y="224.066" width="52.1179" height="80.82" transform="rotate(-90 591 224.066)" fill="#F5F2E9"/>
<rect x="591" y="118.102" width="52.1179" height="80.82" transform="rotate(-90 591 118.102)" fill="#F5F2E9"/>
<rect x="591" y="277.051" width="52.1179" height="80.82" transform="rotate(-90 591 277.051)" fill="#F5F2E9"/>
<rect x="591" y="383.016" width="52.1179" height="80.82" transform="rotate(-90 591 383.016)" fill="#F5F2E9"/>
<rect x="591" y="171.082" width="52.1179" height="80.82" transform="rotate(-90 591 171.082)" fill="#F5F2E9"/>
<rect x="591" y="330.035" width="52.1179" height="80.82" transform="rotate(-90 591 330.035)" fill="#F5F2E9"/>
<rect x="591" y="436" width="52.1179" height="80.82" transform="rotate(-90 591 436)" fill="#F5F2E9"/>
<path d="M629.673 50V30.352L630.185 27.6H634.569V50H629.673ZM625.065 35.28V30.608C625.641 30.6507 626.227 30.5227 626.825 30.224C627.443 29.9253 628.041 29.5307 628.617 29.04C629.214 28.528 629.737 28.0267 630.185 27.536L633.449 30.704C632.659 31.6 631.817 32.4213 630.921 33.168C630.025 33.8933 629.097 34.4587 628.137 34.864C627.177 35.248 626.153 35.3867 625.065 35.28Z" fill="#395485"/>
<path d="M622.695 101.973V98.2607C622.695 97.6847 622.908 97.0233 623.335 96.2767C623.762 95.5087 624.348 94.73 625.095 93.9407C625.863 93.1513 626.727 92.426 627.687 91.7647L630.503 89.8447C630.93 89.5673 631.356 89.2473 631.783 88.8847C632.21 88.5007 632.562 88.0953 632.839 87.6687C633.116 87.2207 633.255 86.7727 633.255 86.3247C633.255 85.8553 633.138 85.4393 632.903 85.0767C632.69 84.6927 632.359 84.4047 631.911 84.2127C631.484 83.9993 630.919 83.8927 630.215 83.8927C629.682 83.8927 629.202 84.01 628.775 84.2447C628.37 84.458 628.028 84.7567 627.751 85.1407C627.495 85.5033 627.303 85.9087 627.175 86.3567L621.863 85.4607C622.076 84.3513 622.535 83.3167 623.239 82.3567C623.964 81.3967 624.914 80.6287 626.087 80.0527C627.282 79.4553 628.647 79.1567 630.183 79.1567C631.932 79.1567 633.426 79.466 634.663 80.0847C635.9 80.682 636.85 81.514 637.511 82.5807C638.194 83.6473 638.535 84.8847 638.535 86.2927C638.535 87.786 638.119 89.0767 637.287 90.1647C636.476 91.2527 635.399 92.2553 634.055 93.1727L631.591 94.8687C631.079 95.21 630.61 95.594 630.183 96.0207C629.756 96.4473 629.383 96.9273 629.063 97.4607H638.791V101.973H622.695Z" fill="#395485"/>
<path d="M630.749 154.333C629.341 154.333 628.05 154.12 626.877 153.693C625.725 153.267 624.765 152.648 623.997 151.837C623.25 151.005 622.759 149.992 622.525 148.797L627.389 147.613C627.517 147.869 627.677 148.179 627.869 148.541C628.082 148.904 628.391 149.224 628.797 149.501C629.202 149.757 629.746 149.885 630.429 149.885C631.325 149.885 632.029 149.651 632.541 149.181C633.053 148.691 633.309 148.051 633.309 147.261C633.309 146.792 633.191 146.355 632.957 145.949C632.743 145.523 632.338 145.192 631.741 144.957C631.165 144.701 630.343 144.573 629.277 144.573H627.613V141.245H629.085C630.343 141.245 631.527 141.405 632.637 141.725C633.767 142.024 634.77 142.472 635.645 143.069C636.519 143.667 637.202 144.371 637.693 145.181C638.205 145.992 638.461 146.909 638.461 147.933C638.461 149.299 638.098 150.461 637.373 151.421C636.647 152.381 635.698 153.107 634.525 153.597C633.351 154.088 632.093 154.333 630.749 154.333ZM627.613 143.517V140.413H629.277C630.621 140.413 631.57 140.189 632.125 139.741C632.679 139.293 632.957 138.685 632.957 137.917C632.957 137.469 632.85 137.075 632.637 136.733C632.423 136.392 632.125 136.125 631.741 135.933C631.357 135.72 630.919 135.613 630.429 135.613C630.066 135.613 629.693 135.677 629.309 135.805C628.925 135.933 628.573 136.157 628.253 136.477C627.933 136.797 627.687 137.256 627.517 137.853L622.717 136.701C622.951 135.485 623.463 134.472 624.253 133.661C625.063 132.829 626.023 132.211 627.133 131.805C628.242 131.379 629.383 131.165 630.557 131.165C631.965 131.165 633.234 131.432 634.365 131.965C635.517 132.477 636.423 133.203 637.085 134.141C637.767 135.059 638.109 136.136 638.109 137.373C638.109 138.44 637.842 139.357 637.309 140.125C636.797 140.893 636.103 141.533 635.229 142.045C634.375 142.536 633.415 142.909 632.349 143.165C631.282 143.4 630.194 143.517 629.085 143.517H627.613Z" fill="#395485"/>
<path d="M631.387 207.324V203.388H620.923V199.26L630.715 184.924H636.251V199.004H639.835V203.388H636.251V207.324H631.387ZM626.075 199.004H631.387V191.228L626.075 199.004Z" fill="#395485"/>
<path d="M630.662 261.087C629.552 261.087 628.432 260.895 627.302 260.511C626.171 260.127 625.158 259.572 624.262 258.847C623.387 258.122 622.768 257.226 622.406 256.159L627.27 255.007C627.59 255.562 628.016 255.978 628.55 256.255C629.104 256.511 629.691 256.639 630.31 256.639C631.248 256.639 632.006 256.362 632.582 255.807C633.179 255.231 633.478 254.463 633.478 253.503C633.478 252.628 633.19 251.892 632.614 251.295C632.059 250.676 631.291 250.367 630.31 250.367C629.712 250.367 629.179 250.506 628.71 250.783C628.262 251.06 627.931 251.391 627.718 251.775L623.078 250.751L624.55 238.303H637.542V242.975H628.902L628.262 247.551C628.816 247.231 629.446 246.986 630.15 246.815C630.854 246.623 631.622 246.527 632.454 246.527C633.606 246.548 634.662 246.847 635.622 247.423C636.603 247.999 637.382 248.788 637.958 249.791C638.534 250.772 638.822 251.914 638.822 253.215C638.822 254.772 638.47 256.148 637.766 257.343C637.062 258.516 636.102 259.434 634.886 260.095C633.67 260.756 632.262 261.087 630.662 261.087Z" fill="#395485"/>
<path d="M630.758 315.868C629.265 315.868 627.985 315.602 626.918 315.068C625.852 314.535 624.977 313.799 624.294 312.86C623.612 311.922 623.1 310.834 622.758 309.596C622.438 308.338 622.278 306.983 622.278 305.532C622.278 303.911 622.438 302.332 622.758 300.796C623.1 299.26 623.633 297.884 624.358 296.668C625.105 295.452 626.076 294.492 627.27 293.788C628.486 293.063 629.958 292.7 631.686 292.7C632.902 292.7 634.076 292.871 635.206 293.212C636.337 293.554 637.361 294.044 638.278 294.684L635.782 298.46C635.121 298.012 634.417 297.692 633.67 297.5C632.924 297.287 632.262 297.18 631.686 297.18C630.278 297.18 629.148 297.831 628.294 299.132C627.441 300.412 627.025 302.471 627.046 305.308L626.022 304.7C626.513 303.591 627.249 302.695 628.23 302.012C629.212 301.33 630.374 300.988 631.718 300.988C633.148 300.988 634.406 301.33 635.494 302.012C636.582 302.695 637.436 303.612 638.054 304.764C638.673 305.916 638.982 307.207 638.982 308.636C638.982 310.023 638.641 311.26 637.958 312.348C637.297 313.436 636.348 314.3 635.11 314.94C633.894 315.559 632.444 315.868 630.758 315.868ZM630.79 311.548C631.366 311.548 631.889 311.41 632.358 311.132C632.828 310.855 633.19 310.482 633.446 310.012C633.724 309.522 633.862 308.978 633.862 308.38C633.862 307.762 633.724 307.207 633.446 306.716C633.19 306.226 632.828 305.842 632.358 305.564C631.889 305.266 631.366 305.116 630.79 305.116C630.193 305.116 629.649 305.266 629.158 305.564C628.689 305.842 628.316 306.226 628.038 306.716C627.761 307.207 627.622 307.762 627.622 308.38C627.622 308.978 627.761 309.522 628.038 310.012C628.316 310.482 628.689 310.855 629.158 311.132C629.649 311.41 630.193 311.548 630.79 311.548Z" fill="#395485"/>
<path d="M624.702 368.863L633.022 351.007L638.622 350.175L630.398 368.863H624.702ZM622.462 351.199V346.463H638.622V350.175L633.118 351.199H622.462Z" fill="#395485"/>
<path d="M630.544 421.22C628.667 421.22 627.088 420.964 625.808 420.452C624.528 419.919 623.557 419.193 622.896 418.276C622.256 417.337 621.936 416.249 621.936 415.012C621.936 413.668 622.256 412.495 622.896 411.492C623.557 410.468 624.528 409.668 625.808 409.092C627.088 408.516 628.667 408.228 630.544 408.228C632.443 408.228 634.021 408.516 635.28 409.092C636.56 409.668 637.531 410.468 638.192 411.492C638.853 412.495 639.184 413.668 639.184 415.012C639.184 416.249 638.853 417.337 638.192 418.276C637.531 419.193 636.56 419.919 635.28 420.452C634.021 420.964 632.443 421.22 630.544 421.22ZM630.544 416.964C631.525 416.964 632.325 416.719 632.944 416.228C633.584 415.716 633.904 415.076 633.904 414.308C633.904 413.412 633.584 412.697 632.944 412.164C632.325 411.609 631.525 411.332 630.544 411.332C629.904 411.332 629.328 411.46 628.816 411.716C628.325 411.951 627.931 412.292 627.632 412.74C627.355 413.188 627.216 413.711 627.216 414.308C627.216 414.82 627.355 415.279 627.632 415.684C627.931 416.068 628.325 416.377 628.816 416.612C629.328 416.847 629.904 416.964 630.544 416.964ZM630.544 410.052C628.837 410.052 627.397 409.807 626.224 409.316C625.051 408.804 624.155 408.111 623.536 407.236C622.917 406.34 622.608 405.305 622.608 404.132C622.608 402.937 622.917 401.881 623.536 400.964C624.155 400.047 625.051 399.332 626.224 398.82C627.397 398.308 628.837 398.052 630.544 398.052C632.229 398.052 633.659 398.308 634.832 398.82C636.027 399.332 636.933 400.047 637.552 400.964C638.192 401.881 638.512 402.937 638.512 404.132C638.512 405.305 638.192 406.34 637.552 407.236C636.933 408.111 636.027 408.804 634.832 409.316C633.659 409.807 632.229 410.052 630.544 410.052ZM630.544 407.396C631.397 407.396 632.101 407.151 632.656 406.66C633.211 406.148 633.488 405.508 633.488 404.74C633.488 403.972 633.211 403.353 632.656 402.884C632.101 402.393 631.397 402.148 630.544 402.148C629.691 402.148 628.987 402.393 628.432 402.884C627.899 403.353 627.632 403.972 627.632 404.74C627.632 405.508 627.899 406.148 628.432 406.66C628.987 407.151 629.691 407.396 630.544 407.396Z" fill="#395485"/>
<path d="M146.608 65.9336V46.2856L147.12 43.5336H151.504V65.9336H146.608ZM142 51.2136V46.5416C142.576 46.5843 143.162 46.4563 143.76 46.1576C144.378 45.8589 144.976 45.4643 145.552 44.9736C146.149 44.4616 146.672 43.9603 147.12 43.4696L150.384 46.6376C149.594 47.5336 148.752 48.3549 147.856 49.1016C146.96 49.8269 146.032 50.3923 145.072 50.7976C144.112 51.1816 143.088 51.3203 142 51.2136Z" fill="#395485"/>
<path d="M98.8161 65.9336L90.4321 43.5336H95.5521L104.256 65.9336H98.8161ZM81.3441 65.9336L90.0481 43.5336H95.1681L86.7841 65.9336H81.3441ZM85.4401 61.6776V57.1336H100.192V61.6776H85.4401Z" fill="#F5F2E9"/>
<path d="M98.8161 65.9336L90.4321 43.5336H95.5521L104.256 65.9336H98.8161ZM81.3441 65.9336L90.0481 43.5336H95.1681L86.7841 65.9336H81.3441ZM85.4401 61.6776V57.1336H100.192V61.6776H85.4401Z" fill="#F5F2E9"/>
<path d="M98.8161 65.9336L90.4321 43.5336H95.5521L104.256 65.9336H98.8161ZM81.3441 65.9336L90.0481 43.5336H95.1681L86.7841 65.9336H81.3441ZM85.4401 61.6776V57.1336H100.192V61.6776H85.4401Z" fill="#F5F2E9"/>
<path d="M165.406 221.594V199.194H173.246C174.782 199.194 176.136 199.428 177.31 199.898C178.483 200.367 179.4 201.082 180.062 202.042C180.723 203.002 181.054 204.218 181.054 205.69C181.054 206.479 180.84 207.226 180.414 207.93C180.008 208.612 179.443 209.231 178.718 209.786C179.742 210.319 180.52 211.023 181.054 211.898C181.608 212.751 181.886 213.807 181.886 215.066C181.886 216.474 181.566 217.668 180.926 218.65C180.286 219.61 179.4 220.346 178.27 220.858C177.139 221.348 175.816 221.594 174.302 221.594H165.406ZM170.43 217.05H173.726C174.6 217.05 175.294 216.826 175.806 216.378C176.318 215.908 176.574 215.311 176.574 214.586C176.574 213.818 176.307 213.22 175.774 212.794C175.24 212.346 174.504 212.122 173.566 212.122H170.43V217.05ZM170.43 207.994H173.086C173.896 207.994 174.547 207.791 175.038 207.386C175.528 206.959 175.774 206.372 175.774 205.626C175.774 204.858 175.507 204.271 174.974 203.866C174.462 203.439 173.768 203.226 172.894 203.226H170.43V207.994Z" fill="#F5F2E9"/>
<path d="M165.406 221.594V199.194H173.246C174.782 199.194 176.136 199.428 177.31 199.898C178.483 200.367 179.4 201.082 180.062 202.042C180.723 203.002 181.054 204.218 181.054 205.69C181.054 206.479 180.84 207.226 180.414 207.93C180.008 208.612 179.443 209.231 178.718 209.786C179.742 210.319 180.52 211.023 181.054 211.898C181.608 212.751 181.886 213.807 181.886 215.066C181.886 216.474 181.566 217.668 180.926 218.65C180.286 219.61 179.4 220.346 178.27 220.858C177.139 221.348 175.816 221.594 174.302 221.594H165.406ZM170.43 217.05H173.726C174.6 217.05 175.294 216.826 175.806 216.378C176.318 215.908 176.574 215.311 176.574 214.586C176.574 213.818 176.307 213.22 175.774 212.794C175.24 212.346 174.504 212.122 173.566 212.122H170.43V217.05ZM170.43 207.994H173.086C173.896 207.994 174.547 207.791 175.038 207.386C175.528 206.959 175.774 206.372 175.774 205.626C175.774 204.858 175.507 204.271 174.974 203.866C174.462 203.439 173.768 203.226 172.894 203.226H170.43V207.994Z" fill="#F5F2E9"/>
<path d="M165.406 221.594V199.194H173.246C174.782 199.194 176.136 199.428 177.31 199.898C178.483 200.367 179.4 201.082 180.062 202.042C180.723 203.002 181.054 204.218 181.054 205.69C181.054 206.479 180.84 207.226 180.414 207.93C180.008 208.612 179.443 209.231 178.718 209.786C179.742 210.319 180.52 211.023 181.054 211.898C181.608 212.751 181.886 213.807 181.886 215.066C181.886 216.474 181.566 217.668 180.926 218.65C180.286 219.61 179.4 220.346 178.27 220.858C177.139 221.348 175.816 221.594 174.302 221.594H165.406ZM170.43 217.05H173.726C174.6 217.05 175.294 216.826 175.806 216.378C176.318 215.908 176.574 215.311 176.574 214.586C176.574 213.818 176.307 213.22 175.774 212.794C175.24 212.346 174.504 212.122 173.566 212.122H170.43V217.05ZM170.43 207.994H173.086C173.896 207.994 174.547 207.791 175.038 207.386C175.528 206.959 175.774 206.372 175.774 205.626C175.774 204.858 175.507 204.271 174.974 203.866C174.462 203.439 173.768 203.226 172.894 203.226H170.43V207.994Z" fill="#F5F2E9"/>
<path d="M548.802 53V30.6H556.13C558.498 30.6 560.589 31.08 562.402 32.04C564.237 33 565.666 34.3227 566.69 36.008C567.714 37.672 568.226 39.6027 568.226 41.8C568.226 43.976 567.714 45.9067 566.69 47.592C565.666 49.2773 564.237 50.6 562.402 51.56C560.589 52.52 558.498 53 556.13 53H548.802ZM553.954 48.136H556.13C557.111 48.136 558.018 47.9867 558.85 47.688C559.682 47.368 560.407 46.9307 561.026 46.376C561.645 45.8 562.125 45.128 562.466 44.36C562.807 43.5707 562.978 42.7173 562.978 41.8C562.978 40.8827 562.807 40.04 562.466 39.272C562.125 38.4827 561.645 37.8107 561.026 37.256C560.407 36.68 559.682 36.2427 558.85 35.944C558.018 35.624 557.111 35.464 556.13 35.464H553.954V48.136Z" fill="#F5F2E9"/>
<path d="M548.802 53V30.6H556.13C558.498 30.6 560.589 31.08 562.402 32.04C564.237 33 565.666 34.3227 566.69 36.008C567.714 37.672 568.226 39.6027 568.226 41.8C568.226 43.976 567.714 45.9067 566.69 47.592C565.666 49.2773 564.237 50.6 562.402 51.56C560.589 52.52 558.498 53 556.13 53H548.802ZM553.954 48.136H556.13C557.111 48.136 558.018 47.9867 558.85 47.688C559.682 47.368 560.407 46.9307 561.026 46.376C561.645 45.8 562.125 45.128 562.466 44.36C562.807 43.5707 562.978 42.7173 562.978 41.8C562.978 40.8827 562.807 40.04 562.466 39.272C562.125 38.4827 561.645 37.8107 561.026 37.256C560.407 36.68 559.682 36.2427 558.85 35.944C558.018 35.624 557.111 35.464 556.13 35.464H553.954V48.136Z" fill="#F5F2E9"/>
<path d="M548.802 53V30.6H556.13C558.498 30.6 560.589 31.08 562.402 32.04C564.237 33 565.666 34.3227 566.69 36.008C567.714 37.672 568.226 39.6027 568.226 41.8C568.226 43.976 567.714 45.9067 566.69 47.592C565.666 49.2773 564.237 50.6 562.402 51.56C560.589 52.52 558.498 53 556.13 53H548.802ZM553.954 48.136H556.13C557.111 48.136 558.018 47.9867 558.85 47.688C559.682 47.368 560.407 46.9307 561.026 46.376C561.645 45.8 562.125 45.128 562.466 44.36C562.807 43.5707 562.978 42.7173 562.978 41.8C562.978 40.8827 562.807 40.04 562.466 39.272C562.125 38.4827 561.645 37.8107 561.026 37.256C560.407 36.68 559.682 36.2427 558.85 35.944C558.018 35.624 557.111 35.464 556.13 35.464H553.954V48.136Z" fill="#F5F2E9"/>
<path d="M202.63 65.9336V62.2216C202.63 61.6456 202.843 60.9843 203.27 60.2376C203.696 59.4696 204.283 58.6909 205.03 57.9016C205.798 57.1123 206.662 56.3869 207.622 55.7256L210.438 53.8056C210.864 53.5283 211.291 53.2083 211.718 52.8456C212.144 52.4616 212.496 52.0563 212.774 51.6296C213.051 51.1816 213.19 50.7336 213.19 50.2856C213.19 49.8163 213.072 49.4003 212.838 49.0376C212.624 48.6536 212.294 48.3656 211.846 48.1736C211.419 47.9603 210.854 47.8536 210.15 47.8536C209.616 47.8536 209.136 47.9709 208.71 48.2056C208.304 48.4189 207.963 48.7176 207.686 49.1016C207.43 49.4643 207.238 49.8696 207.11 50.3176L201.798 49.4216C202.011 48.3123 202.47 47.2776 203.174 46.3176C203.899 45.3576 204.848 44.5896 206.022 44.0136C207.216 43.4163 208.582 43.1176 210.118 43.1176C211.867 43.1176 213.36 43.4269 214.598 44.0456C215.835 44.6429 216.784 45.4749 217.446 46.5416C218.128 47.6083 218.47 48.8456 218.47 50.2536C218.47 51.7469 218.054 53.0376 217.222 54.1256C216.411 55.2136 215.334 56.2163 213.99 57.1336L211.526 58.8296C211.014 59.1709 210.544 59.5549 210.118 59.9816C209.691 60.4083 209.318 60.8883 208.998 61.4216H218.726V65.9336H202.63Z" fill="#395485"/>
<path d="M273.683 66.3176C272.275 66.3176 270.985 66.1043 269.811 65.6776C268.659 65.2509 267.699 64.6323 266.931 63.8216C266.185 62.9896 265.694 61.9763 265.459 60.7816L270.323 59.5976C270.451 59.8536 270.611 60.1629 270.803 60.5256C271.017 60.8883 271.326 61.2083 271.731 61.4856C272.137 61.7416 272.681 61.8696 273.363 61.8696C274.259 61.8696 274.963 61.6349 275.475 61.1656C275.987 60.6749 276.243 60.0349 276.243 59.2456C276.243 58.7763 276.126 58.3389 275.891 57.9336C275.678 57.5069 275.273 57.1763 274.675 56.9416C274.099 56.6856 273.278 56.5576 272.211 56.5576H270.547V53.2296H272.019C273.278 53.2296 274.462 53.3896 275.571 53.7096C276.702 54.0083 277.705 54.4563 278.579 55.0536C279.454 55.6509 280.137 56.3549 280.627 57.1656C281.139 57.9763 281.395 58.8936 281.395 59.9176C281.395 61.2829 281.033 62.4456 280.307 63.4056C279.582 64.3656 278.633 65.0909 277.459 65.5816C276.286 66.0723 275.027 66.3176 273.683 66.3176ZM270.547 55.5016V52.3976H272.211C273.555 52.3976 274.505 52.1736 275.059 51.7256C275.614 51.2776 275.891 50.6696 275.891 49.9016C275.891 49.4536 275.785 49.0589 275.571 48.7176C275.358 48.3763 275.059 48.1096 274.675 47.9176C274.291 47.7043 273.854 47.5976 273.363 47.5976C273.001 47.5976 272.627 47.6616 272.243 47.7896C271.859 47.9176 271.507 48.1416 271.187 48.4616C270.867 48.7816 270.622 49.2403 270.451 49.8376L265.651 48.6856C265.886 47.4696 266.398 46.4563 267.187 45.6456C267.998 44.8136 268.958 44.1949 270.067 43.7896C271.177 43.3629 272.318 43.1496 273.491 43.1496C274.899 43.1496 276.169 43.4163 277.299 43.9496C278.451 44.4616 279.358 45.1869 280.019 46.1256C280.702 47.0429 281.043 48.1203 281.043 49.3576C281.043 50.4243 280.777 51.3416 280.243 52.1096C279.731 52.8776 279.038 53.5176 278.163 54.0296C277.31 54.5203 276.35 54.8936 275.283 55.1496C274.217 55.3843 273.129 55.5016 272.019 55.5016H270.547Z" fill="#395485"/>
<path d="M341.821 65.9336V61.9976H331.357V57.8696L341.149 43.5336H346.685V57.6136H350.269V61.9976H346.685V65.9336H341.821ZM336.509 57.6136H341.821V49.8376L336.509 57.6136Z" fill="#395485"/>
<path d="M404.596 66.3176C403.487 66.3176 402.367 66.1256 401.236 65.7416C400.106 65.3576 399.092 64.8029 398.196 64.0776C397.322 63.3523 396.703 62.4563 396.34 61.3896L401.204 60.2376C401.524 60.7923 401.951 61.2083 402.484 61.4856C403.039 61.7416 403.626 61.8696 404.244 61.8696C405.183 61.8696 405.94 61.5923 406.516 61.0376C407.114 60.4616 407.412 59.6936 407.412 58.7336C407.412 57.8589 407.124 57.1229 406.548 56.5256C405.994 55.9069 405.226 55.5976 404.244 55.5976C403.647 55.5976 403.114 55.7363 402.644 56.0136C402.196 56.2909 401.866 56.6216 401.652 57.0056L397.012 55.9816L398.484 43.5336H411.476V48.2056H402.836L402.196 52.7816C402.751 52.4616 403.38 52.2163 404.084 52.0456C404.788 51.8536 405.556 51.7576 406.388 51.7576C407.54 51.7789 408.596 52.0776 409.556 52.6536C410.538 53.2296 411.316 54.0189 411.892 55.0216C412.468 56.0029 412.756 57.1443 412.756 58.4456C412.756 60.0029 412.404 61.3789 411.7 62.5736C410.996 63.7469 410.036 64.6643 408.82 65.3256C407.604 65.9869 406.196 66.3176 404.596 66.3176Z" fill="#395485"/>
<path d="M467.693 66.3176C466.2 66.3176 464.92 66.0509 463.853 65.5176C462.786 64.9843 461.912 64.2483 461.229 63.3096C460.546 62.3709 460.034 61.2829 459.693 60.0456C459.373 58.7869 459.213 57.4323 459.213 55.9816C459.213 54.3603 459.373 52.7816 459.693 51.2456C460.034 49.7096 460.568 48.3336 461.293 47.1176C462.04 45.9016 463.01 44.9416 464.205 44.2376C465.421 43.5123 466.893 43.1496 468.621 43.1496C469.837 43.1496 471.01 43.3203 472.141 43.6616C473.272 44.0029 474.296 44.4936 475.213 45.1336L472.717 48.9096C472.056 48.4616 471.352 48.1416 470.605 47.9496C469.858 47.7363 469.197 47.6296 468.621 47.6296C467.213 47.6296 466.082 48.2803 465.229 49.5816C464.376 50.8616 463.96 52.9203 463.981 55.7576L462.957 55.1496C463.448 54.0403 464.184 53.1443 465.165 52.4616C466.146 51.7789 467.309 51.4376 468.653 51.4376C470.082 51.4376 471.341 51.7789 472.429 52.4616C473.517 53.1443 474.37 54.0616 474.989 55.2136C475.608 56.3656 475.917 57.6563 475.917 59.0856C475.917 60.4723 475.576 61.7096 474.893 62.7976C474.232 63.8856 473.282 64.7496 472.045 65.3896C470.829 66.0083 469.378 66.3176 467.693 66.3176ZM467.725 61.9976C468.301 61.9976 468.824 61.8589 469.293 61.5816C469.762 61.3043 470.125 60.9309 470.381 60.4616C470.658 59.9709 470.797 59.4269 470.797 58.8296C470.797 58.2109 470.658 57.6563 470.381 57.1656C470.125 56.6749 469.762 56.2909 469.293 56.0136C468.824 55.7149 468.301 55.5656 467.725 55.5656C467.128 55.5656 466.584 55.7149 466.093 56.0136C465.624 56.2909 465.25 56.6749 464.973 57.1656C464.696 57.6563 464.557 58.2109 464.557 58.8296C464.557 59.4269 464.696 59.9709 464.973 60.4616C465.25 60.9309 465.624 61.3043 466.093 61.5816C466.584 61.8589 467.128 61.9976 467.725 61.9976Z" fill="#395485"/>
<path d="M173.705 371.384C171.487 371.384 169.524 370.893 167.817 369.912C166.132 368.909 164.799 367.544 163.817 365.816C162.857 364.067 162.377 362.061 162.377 359.8C162.377 357.539 162.857 355.544 163.817 353.816C164.799 352.067 166.132 350.701 167.817 349.72C169.524 348.717 171.487 348.216 173.705 348.216C175.327 348.216 176.809 348.504 178.153 349.08C179.519 349.635 180.692 350.424 181.673 351.448C182.676 352.472 183.444 353.656 183.977 355L179.145 356.632C178.825 355.885 178.388 355.235 177.833 354.68C177.3 354.125 176.681 353.699 175.977 353.4C175.295 353.101 174.537 352.952 173.705 352.952C172.532 352.952 171.487 353.24 170.569 353.816C169.652 354.392 168.937 355.203 168.425 356.248C167.913 357.272 167.657 358.456 167.657 359.8C167.657 361.144 167.913 362.339 168.425 363.384C168.959 364.408 169.684 365.219 170.601 365.816C171.54 366.392 172.607 366.68 173.801 366.68C174.676 366.68 175.455 366.52 176.137 366.2C176.82 365.88 177.407 365.432 177.897 364.856C178.409 364.28 178.847 363.619 179.209 362.872L184.041 364.504C183.529 365.869 182.772 367.075 181.769 368.12C180.767 369.144 179.583 369.944 178.217 370.52C176.852 371.096 175.348 371.384 173.705 371.384Z" fill="#F5F2E9"/>
<path d="M173.705 371.384C171.487 371.384 169.524 370.893 167.817 369.912C166.132 368.909 164.799 367.544 163.817 365.816C162.857 364.067 162.377 362.061 162.377 359.8C162.377 357.539 162.857 355.544 163.817 353.816C164.799 352.067 166.132 350.701 167.817 349.72C169.524 348.717 171.487 348.216 173.705 348.216C175.327 348.216 176.809 348.504 178.153 349.08C179.519 349.635 180.692 350.424 181.673 351.448C182.676 352.472 183.444 353.656 183.977 355L179.145 356.632C178.825 355.885 178.388 355.235 177.833 354.68C177.3 354.125 176.681 353.699 175.977 353.4C175.295 353.101 174.537 352.952 173.705 352.952C172.532 352.952 171.487 353.24 170.569 353.816C169.652 354.392 168.937 355.203 168.425 356.248C167.913 357.272 167.657 358.456 167.657 359.8C167.657 361.144 167.913 362.339 168.425 363.384C168.959 364.408 169.684 365.219 170.601 365.816C171.54 366.392 172.607 366.68 173.801 366.68C174.676 366.68 175.455 366.52 176.137 366.2C176.82 365.88 177.407 365.432 177.897 364.856C178.409 364.28 178.847 363.619 179.209 362.872L184.041 364.504C183.529 365.869 182.772 367.075 181.769 368.12C180.767 369.144 179.583 369.944 178.217 370.52C176.852 371.096 175.348 371.384 173.705 371.384Z" fill="#F5F2E9"/>
<path d="M173.705 371.384C171.487 371.384 169.524 370.893 167.817 369.912C166.132 368.909 164.799 367.544 163.817 365.816C162.857 364.067 162.377 362.061 162.377 359.8C162.377 357.539 162.857 355.544 163.817 353.816C164.799 352.067 166.132 350.701 167.817 349.72C169.524 348.717 171.487 348.216 173.705 348.216C175.327 348.216 176.809 348.504 178.153 349.08C179.519 349.635 180.692 350.424 181.673 351.448C182.676 352.472 183.444 353.656 183.977 355L179.145 356.632C178.825 355.885 178.388 355.235 177.833 354.68C177.3 354.125 176.681 353.699 175.977 353.4C175.295 353.101 174.537 352.952 173.705 352.952C172.532 352.952 171.487 353.24 170.569 353.816C169.652 354.392 168.937 355.203 168.425 356.248C167.913 357.272 167.657 358.456 167.657 359.8C167.657 361.144 167.913 362.339 168.425 363.384C168.959 364.408 169.684 365.219 170.601 365.816C171.54 366.392 172.607 366.68 173.801 366.68C174.676 366.68 175.455 366.52 176.137 366.2C176.82 365.88 177.407 365.432 177.897 364.856C178.409 364.28 178.847 363.619 179.209 362.872L184.041 364.504C183.529 365.869 182.772 367.075 181.769 368.12C180.767 369.144 179.583 369.944 178.217 370.52C176.852 371.096 175.348 371.384 173.705 371.384Z" fill="#F5F2E9"/>
</svg>
