<svg width="657" height="463" viewBox="0 0 657 463" fill="none" xmlns="http://www.w3.org/2000/svg">
<rect width="656.66" height="463" fill="#464646"/>
<rect x="97.1978" y="21.1222" width="57.3369" height="81.7059" fill="#3572A5"/>
<rect x="155.909" y="21.1222" width="57.3369" height="81.7059" fill="#3572A5"/>
<rect x="214.621" y="21.1222" width="57.3369" height="81.7059" fill="#3572A5"/>
<rect x="273.332" y="21.1222" width="57.3369" height="81.7059" fill="#3572A5"/>
<rect x="332.043" y="21.1222" width="57.3369" height="81.7059" fill="#3572A5"/>
<rect x="390.755" y="21.1222" width="57.3369" height="81.7059" fill="#3572A5"/>
<path d="M612.177 101.606V81.9584L612.689 79.2064H617.073V101.606H612.177ZM607.569 86.8864V82.2144C608.145 82.2571 608.732 82.1291 609.329 81.8304C609.948 81.5318 610.545 81.1371 611.121 80.6464C611.718 80.1344 612.241 79.6331 612.689 79.1424L615.953 82.3104C615.164 83.2064 614.321 84.0278 613.425 84.7744C612.529 85.4998 611.601 86.0651 610.641 86.4704C609.681 86.8544 608.657 86.9931 607.569 86.8864Z" fill="black"/>
<path d="M612.177 101.606V81.9584L612.689 79.2064H617.073V101.606H612.177ZM607.569 86.8864V82.2144C608.145 82.2571 608.732 82.1291 609.329 81.8304C609.948 81.5318 610.545 81.1371 611.121 80.6464C611.718 80.1344 612.241 79.6331 612.689 79.1424L615.953 82.3104C615.164 83.2064 614.321 84.0278 613.425 84.7744C612.529 85.4998 611.601 86.0651 610.641 86.4704C609.681 86.8544 608.657 86.9931 607.569 86.8864Z" fill="black"/>
<path d="M605.199 145.531V141.819C605.199 141.243 605.412 140.582 605.839 139.835C606.266 139.067 606.852 138.289 607.599 137.499C608.367 136.71 609.231 135.985 610.191 135.323L613.007 133.403C613.434 133.126 613.86 132.806 614.287 132.443C614.714 132.059 615.066 131.654 615.343 131.227C615.62 130.779 615.759 130.331 615.759 129.883C615.759 129.414 615.642 128.998 615.407 128.635C615.194 128.251 614.863 127.963 614.415 127.771C613.988 127.558 613.423 127.451 612.719 127.451C612.186 127.451 611.706 127.569 611.279 127.803C610.874 128.017 610.532 128.315 610.255 128.699C609.999 129.062 609.807 129.467 609.679 129.915L604.367 129.019C604.58 127.91 605.039 126.875 605.743 125.915C606.468 124.955 607.418 124.187 608.591 123.611C609.786 123.014 611.151 122.715 612.687 122.715C614.436 122.715 615.93 123.025 617.167 123.643C618.404 124.241 619.354 125.073 620.015 126.139C620.698 127.206 621.039 128.443 621.039 129.851C621.039 131.345 620.623 132.635 619.791 133.723C618.98 134.811 617.903 135.814 616.559 136.731L614.095 138.427C613.583 138.769 613.114 139.153 612.687 139.579C612.26 140.006 611.887 140.486 611.567 141.019H621.295V145.531H605.199Z" fill="black"/>
<path d="M605.199 145.531V141.819C605.199 141.243 605.412 140.582 605.839 139.835C606.266 139.067 606.852 138.289 607.599 137.499C608.367 136.71 609.231 135.985 610.191 135.323L613.007 133.403C613.434 133.126 613.86 132.806 614.287 132.443C614.714 132.059 615.066 131.654 615.343 131.227C615.62 130.779 615.759 130.331 615.759 129.883C615.759 129.414 615.642 128.998 615.407 128.635C615.194 128.251 614.863 127.963 614.415 127.771C613.988 127.558 613.423 127.451 612.719 127.451C612.186 127.451 611.706 127.569 611.279 127.803C610.874 128.017 610.532 128.315 610.255 128.699C609.999 129.062 609.807 129.467 609.679 129.915L604.367 129.019C604.58 127.91 605.039 126.875 605.743 125.915C606.468 124.955 607.418 124.187 608.591 123.611C609.786 123.014 611.151 122.715 612.687 122.715C614.436 122.715 615.93 123.025 617.167 123.643C618.404 124.241 619.354 125.073 620.015 126.139C620.698 127.206 621.039 128.443 621.039 129.851C621.039 131.345 620.623 132.635 619.791 133.723C618.98 134.811 617.903 135.814 616.559 136.731L614.095 138.427C613.583 138.769 613.114 139.153 612.687 139.579C612.26 140.006 611.887 140.486 611.567 141.019H621.295V145.531H605.199Z" fill="black"/>
<rect x="191.345" y="210.628" width="60.23" height="80.3282" transform="rotate(-90 191.345 210.628)" fill="#3572A5"/>
<rect x="272.667" y="210.628" width="60.23" height="80.3282" transform="rotate(-90 272.667 210.628)" fill="#3572A5"/>
<rect x="191.345" y="271.858" width="60.23" height="80.3282" transform="rotate(-90 191.345 271.858)" fill="#3572A5"/>
<rect x="272.667" y="271.858" width="60.23" height="80.3282" transform="rotate(-90 272.667 271.858)" fill="#3572A5"/>
<rect x="191.345" y="361.628" width="60.23" height="80.3282" transform="rotate(-90 191.345 361.628)" fill="#3572A5"/>
<rect x="272.667" y="361.628" width="60.23" height="80.3282" transform="rotate(-90 272.667 361.628)" fill="#3572A5"/>
<rect x="191.345" y="422.858" width="60.23" height="80.3282" transform="rotate(-90 191.345 422.858)" fill="#3572A5"/>
<rect x="272.667" y="422.858" width="60.23" height="80.3282" transform="rotate(-90 272.667 422.858)" fill="#3572A5"/>
<path d="M228.221 191.67V172.022L228.733 169.27H233.117V191.67H228.221ZM223.613 176.95V172.278C224.189 172.321 224.775 172.193 225.373 171.894C225.991 171.596 226.589 171.201 227.165 170.71C227.762 170.198 228.285 169.697 228.733 169.206L231.997 172.374C231.207 173.27 230.365 174.092 229.469 174.838C228.573 175.564 227.645 176.129 226.685 176.534C225.725 176.918 224.701 177.057 223.613 176.95Z" fill="black"/>
<path d="M221.243 253.507V249.795C221.243 249.219 221.456 248.558 221.883 247.811C222.309 247.043 222.896 246.264 223.643 245.475C224.411 244.686 225.275 243.96 226.235 243.299L229.051 241.379C229.477 241.102 229.904 240.782 230.331 240.419C230.757 240.035 231.109 239.63 231.387 239.203C231.664 238.755 231.803 238.307 231.803 237.859C231.803 237.39 231.685 236.974 231.451 236.611C231.237 236.227 230.907 235.939 230.459 235.747C230.032 235.534 229.467 235.427 228.763 235.427C228.229 235.427 227.749 235.544 227.323 235.779C226.917 235.992 226.576 236.291 226.299 236.675C226.043 237.038 225.851 237.443 225.723 237.891L220.411 236.995C220.624 235.886 221.083 234.851 221.787 233.891C222.512 232.931 223.461 232.163 224.635 231.587C225.829 230.99 227.195 230.691 228.731 230.691C230.48 230.691 231.973 231 233.211 231.619C234.448 232.216 235.397 233.048 236.059 234.115C236.741 235.182 237.083 236.419 237.083 237.827C237.083 239.32 236.667 240.611 235.835 241.699C235.024 242.787 233.947 243.79 232.603 244.707L230.139 246.403C229.627 246.744 229.157 247.128 228.731 247.555C228.304 247.982 227.931 248.462 227.611 248.995H237.339V253.507H221.243Z" fill="black"/>
<path d="M310.468 190.384C309.06 190.384 307.769 190.171 306.596 189.744C305.444 189.317 304.484 188.699 303.716 187.888C302.969 187.056 302.479 186.043 302.244 184.848L307.108 183.664C307.236 183.92 307.396 184.229 307.588 184.592C307.801 184.955 308.111 185.275 308.516 185.552C308.921 185.808 309.465 185.936 310.148 185.936C311.044 185.936 311.748 185.701 312.26 185.232C312.772 184.741 313.028 184.101 313.028 183.312C313.028 182.843 312.911 182.405 312.676 182C312.463 181.573 312.057 181.243 311.46 181.008C310.884 180.752 310.063 180.624 308.996 180.624H307.332V177.296H308.804C310.063 177.296 311.247 177.456 312.356 177.776C313.487 178.075 314.489 178.523 315.364 179.12C316.239 179.717 316.921 180.421 317.412 181.232C317.924 182.043 318.18 182.96 318.18 183.984C318.18 185.349 317.817 186.512 317.092 187.472C316.367 188.432 315.417 189.157 314.244 189.648C313.071 190.139 311.812 190.384 310.468 190.384ZM307.332 179.568V176.464H308.996C310.34 176.464 311.289 176.24 311.844 175.792C312.399 175.344 312.676 174.736 312.676 173.968C312.676 173.52 312.569 173.125 312.356 172.784C312.143 172.443 311.844 172.176 311.46 171.984C311.076 171.771 310.639 171.664 310.148 171.664C309.785 171.664 309.412 171.728 309.028 171.856C308.644 171.984 308.292 172.208 307.972 172.528C307.652 172.848 307.407 173.307 307.236 173.904L302.436 172.752C302.671 171.536 303.183 170.523 303.972 169.712C304.783 168.88 305.743 168.261 306.852 167.856C307.961 167.429 309.103 167.216 310.276 167.216C311.684 167.216 312.953 167.483 314.084 168.016C315.236 168.528 316.143 169.253 316.804 170.192C317.487 171.109 317.828 172.187 317.828 173.424C317.828 174.491 317.561 175.408 317.028 176.176C316.516 176.944 315.823 177.584 314.948 178.096C314.095 178.587 313.135 178.96 312.068 179.216C311.001 179.451 309.913 179.568 308.804 179.568H307.332Z" fill="black"/>
<path d="M311.106 253.507V249.571H300.642V245.443L310.434 231.107H315.97V245.187H319.554V249.571H315.97V253.507H311.106ZM305.794 245.187H311.106V237.411L305.794 245.187Z" fill="black"/>
<path d="M228.221 342.67V323.022L228.733 320.27H233.117V342.67H228.221ZM223.613 327.95V323.278C224.189 323.321 224.775 323.193 225.373 322.894C225.991 322.596 226.589 322.201 227.165 321.71C227.762 321.198 228.285 320.697 228.733 320.206L231.997 323.374C231.207 324.27 230.365 325.092 229.469 325.838C228.573 326.564 227.645 327.129 226.685 327.534C225.725 327.918 224.701 328.057 223.613 327.95Z" fill="black"/>
<path d="M221.243 404.507V400.795C221.243 400.219 221.456 399.558 221.883 398.811C222.309 398.043 222.896 397.264 223.643 396.475C224.411 395.686 225.275 394.96 226.235 394.299L229.051 392.379C229.477 392.102 229.904 391.782 230.331 391.419C230.757 391.035 231.109 390.63 231.387 390.203C231.664 389.755 231.803 389.307 231.803 388.859C231.803 388.39 231.685 387.974 231.451 387.611C231.237 387.227 230.907 386.939 230.459 386.747C230.032 386.534 229.467 386.427 228.763 386.427C228.229 386.427 227.749 386.544 227.323 386.779C226.917 386.992 226.576 387.291 226.299 387.675C226.043 388.038 225.851 388.443 225.723 388.891L220.411 387.995C220.624 386.886 221.083 385.851 221.787 384.891C222.512 383.931 223.461 383.163 224.635 382.587C225.829 381.99 227.195 381.691 228.731 381.691C230.48 381.691 231.973 382 233.211 382.619C234.448 383.216 235.397 384.048 236.059 385.115C236.741 386.182 237.083 387.419 237.083 388.827C237.083 390.32 236.667 391.611 235.835 392.699C235.024 393.787 233.947 394.79 232.603 395.707L230.139 397.403C229.627 397.744 229.157 398.128 228.731 398.555C228.304 398.982 227.931 399.462 227.611 399.995H237.339V404.507H221.243Z" fill="black"/>
<path d="M310.468 341.384C309.06 341.384 307.769 341.171 306.596 340.744C305.444 340.317 304.484 339.699 303.716 338.888C302.969 338.056 302.479 337.043 302.244 335.848L307.108 334.664C307.236 334.92 307.396 335.229 307.588 335.592C307.801 335.955 308.111 336.275 308.516 336.552C308.921 336.808 309.465 336.936 310.148 336.936C311.044 336.936 311.748 336.701 312.26 336.232C312.772 335.741 313.028 335.101 313.028 334.312C313.028 333.843 312.911 333.405 312.676 333C312.463 332.573 312.057 332.243 311.46 332.008C310.884 331.752 310.063 331.624 308.996 331.624H307.332V328.296H308.804C310.063 328.296 311.247 328.456 312.356 328.776C313.487 329.075 314.489 329.523 315.364 330.12C316.239 330.717 316.921 331.421 317.412 332.232C317.924 333.043 318.18 333.96 318.18 334.984C318.18 336.349 317.817 337.512 317.092 338.472C316.367 339.432 315.417 340.157 314.244 340.648C313.071 341.139 311.812 341.384 310.468 341.384ZM307.332 330.568V327.464H308.996C310.34 327.464 311.289 327.24 311.844 326.792C312.399 326.344 312.676 325.736 312.676 324.968C312.676 324.52 312.569 324.125 312.356 323.784C312.143 323.443 311.844 323.176 311.46 322.984C311.076 322.771 310.639 322.664 310.148 322.664C309.785 322.664 309.412 322.728 309.028 322.856C308.644 322.984 308.292 323.208 307.972 323.528C307.652 323.848 307.407 324.307 307.236 324.904L302.436 323.752C302.671 322.536 303.183 321.523 303.972 320.712C304.783 319.88 305.743 319.261 306.852 318.856C307.961 318.429 309.103 318.216 310.276 318.216C311.684 318.216 312.953 318.483 314.084 319.016C315.236 319.528 316.143 320.253 316.804 321.192C317.487 322.109 317.828 323.187 317.828 324.424C317.828 325.491 317.561 326.408 317.028 327.176C316.516 327.944 315.823 328.584 314.948 329.096C314.095 329.587 313.135 329.96 312.068 330.216C311.001 330.451 309.913 330.568 308.804 330.568H307.332Z" fill="black"/>
<path d="M311.106 404.507V400.571H300.642V396.443L310.434 382.107H315.97V396.187H319.554V400.571H315.97V404.507H311.106ZM305.794 396.187H311.106V388.411L305.794 396.187Z" fill="black"/>
<rect x="545.391" y="73.1177" width="52.1179" height="80.3282" transform="rotate(-90 545.391 73.1177)" fill="#3572A5"/>
<rect x="545.391" y="232.067" width="52.1179" height="80.3282" transform="rotate(-90 545.391 232.067)" fill="#3572A5"/>
<rect x="545.391" y="126.101" width="52.1179" height="80.3282" transform="rotate(-90 545.391 126.101)" fill="#3572A5"/>
<rect x="545.391" y="285.05" width="52.1179" height="80.3282" transform="rotate(-90 545.391 285.05)" fill="#3572A5"/>
<rect x="545.391" y="391.017" width="52.1179" height="80.3282" transform="rotate(-90 545.391 391.017)" fill="#3572A5"/>
<rect x="545.391" y="179.084" width="52.1179" height="80.3282" transform="rotate(-90 545.391 179.084)" fill="#3572A5"/>
<rect x="545.391" y="338.034" width="52.1179" height="80.3282" transform="rotate(-90 545.391 338.034)" fill="#3572A5"/>
<rect x="545.391" y="444" width="52.1179" height="80.3282" transform="rotate(-90 545.391 444)" fill="#3572A5"/>
<path d="M583.823 58V38.352L584.335 35.6H588.719V58H583.823ZM579.215 43.28V38.608C579.791 38.6507 580.378 38.5227 580.975 38.224C581.594 37.9253 582.191 37.5307 582.767 37.04C583.365 36.528 583.887 36.0267 584.335 35.536L587.599 38.704C586.81 39.6 585.967 40.4213 585.071 41.168C584.175 41.8933 583.247 42.4587 582.287 42.864C581.327 43.248 580.303 43.3867 579.215 43.28Z" fill="black"/>
<path d="M576.846 109.975V106.263C576.846 105.687 577.059 105.025 577.486 104.279C577.912 103.511 578.499 102.732 579.246 101.943C580.014 101.153 580.878 100.428 581.838 99.7666L584.654 97.8466C585.08 97.5693 585.507 97.2493 585.934 96.8866C586.36 96.5026 586.712 96.0973 586.99 95.6706C587.267 95.2226 587.406 94.7746 587.406 94.3266C587.406 93.8573 587.288 93.4413 587.054 93.0786C586.84 92.6946 586.51 92.4066 586.062 92.2146C585.635 92.0013 585.07 91.8946 584.366 91.8946C583.832 91.8946 583.352 92.0119 582.926 92.2466C582.52 92.4599 582.179 92.7586 581.902 93.1426C581.646 93.5053 581.454 93.9106 581.326 94.3586L576.014 93.4626C576.227 92.3533 576.686 91.3186 577.39 90.3586C578.115 89.3986 579.064 88.6306 580.238 88.0546C581.432 87.4573 582.798 87.1586 584.334 87.1586C586.083 87.1586 587.576 87.4679 588.814 88.0866C590.051 88.6839 591 89.5159 591.662 90.5826C592.344 91.6493 592.686 92.8866 592.686 94.2946C592.686 95.7879 592.27 97.0786 591.438 98.1666C590.627 99.2546 589.55 100.257 588.206 101.175L585.742 102.871C585.23 103.212 584.76 103.596 584.334 104.023C583.907 104.449 583.534 104.929 583.214 105.463H592.942V109.975H576.846Z" fill="black"/>
<path d="M584.899 162.332C583.491 162.332 582.2 162.118 581.027 161.692C579.875 161.265 578.915 160.646 578.147 159.836C577.4 159.004 576.91 157.99 576.675 156.796L581.539 155.612C581.667 155.868 581.827 156.177 582.019 156.54C582.232 156.902 582.542 157.222 582.947 157.5C583.352 157.756 583.896 157.884 584.579 157.884C585.475 157.884 586.179 157.649 586.691 157.18C587.203 156.689 587.459 156.049 587.459 155.26C587.459 154.79 587.342 154.353 587.107 153.948C586.894 153.521 586.488 153.19 585.891 152.956C585.315 152.7 584.494 152.572 583.427 152.572H581.763V149.244H583.235C584.494 149.244 585.678 149.404 586.787 149.724C587.918 150.022 588.92 150.47 589.795 151.068C590.67 151.665 591.352 152.369 591.843 153.18C592.355 153.99 592.611 154.908 592.611 155.932C592.611 157.297 592.248 158.46 591.523 159.42C590.798 160.38 589.848 161.105 588.675 161.596C587.502 162.086 586.243 162.332 584.899 162.332ZM581.763 151.516V148.412H583.427C584.771 148.412 585.72 148.188 586.275 147.74C586.83 147.292 587.107 146.684 587.107 145.916C587.107 145.468 587 145.073 586.787 144.732C586.574 144.39 586.275 144.124 585.891 143.932C585.507 143.718 585.07 143.612 584.579 143.612C584.216 143.612 583.843 143.676 583.459 143.804C583.075 143.932 582.723 144.156 582.403 144.476C582.083 144.796 581.838 145.254 581.667 145.852L576.867 144.7C577.102 143.484 577.614 142.47 578.403 141.66C579.214 140.828 580.174 140.209 581.283 139.804C582.392 139.377 583.534 139.164 584.707 139.164C586.115 139.164 587.384 139.43 588.515 139.964C589.667 140.476 590.574 141.201 591.235 142.14C591.918 143.057 592.259 144.134 592.259 145.372C592.259 146.438 591.992 147.356 591.459 148.124C590.947 148.892 590.254 149.532 589.379 150.044C588.526 150.534 587.566 150.908 586.499 151.164C585.432 151.398 584.344 151.516 583.235 151.516H581.763Z" fill="black"/>
<path d="M585.537 215.324V211.388H575.073V207.26L584.865 192.924H590.401V207.004H593.985V211.388H590.401V215.324H585.537ZM580.225 207.004H585.537V199.228L580.225 207.004Z" fill="black"/>
<path d="M584.812 269.087C583.703 269.087 582.583 268.895 581.452 268.511C580.321 268.127 579.308 267.572 578.412 266.847C577.537 266.122 576.919 265.226 576.556 264.159L581.42 263.007C581.74 263.562 582.167 263.978 582.7 264.255C583.255 264.511 583.841 264.639 584.46 264.639C585.399 264.639 586.156 264.362 586.732 263.807C587.329 263.231 587.628 262.463 587.628 261.503C587.628 260.628 587.34 259.892 586.764 259.295C586.209 258.676 585.441 258.367 584.46 258.367C583.863 258.367 583.329 258.506 582.86 258.783C582.412 259.06 582.081 259.391 581.868 259.775L577.228 258.751L578.7 246.303H591.692V250.975H583.052L582.412 255.551C582.967 255.231 583.596 254.986 584.3 254.815C585.004 254.623 585.772 254.527 586.604 254.527C587.756 254.548 588.812 254.847 589.772 255.423C590.753 255.999 591.532 256.788 592.108 257.791C592.684 258.772 592.972 259.914 592.972 261.215C592.972 262.772 592.62 264.148 591.916 265.343C591.212 266.516 590.252 267.434 589.036 268.095C587.82 268.756 586.412 269.087 584.812 269.087Z" fill="black"/>
<path d="M584.909 323.869C583.416 323.869 582.136 323.603 581.069 323.069C580.002 322.536 579.128 321.8 578.445 320.861C577.762 319.923 577.25 318.835 576.909 317.597C576.589 316.339 576.429 314.984 576.429 313.533C576.429 311.912 576.589 310.333 576.909 308.797C577.25 307.261 577.784 305.885 578.509 304.669C579.256 303.453 580.226 302.493 581.421 301.789C582.637 301.064 584.109 300.701 585.837 300.701C587.053 300.701 588.226 300.872 589.357 301.213C590.488 301.555 591.512 302.045 592.429 302.685L589.933 306.461C589.272 306.013 588.568 305.693 587.821 305.501C587.074 305.288 586.413 305.181 585.837 305.181C584.429 305.181 583.298 305.832 582.445 307.133C581.592 308.413 581.176 310.472 581.197 313.309L580.173 312.701C580.664 311.592 581.4 310.696 582.381 310.013C583.362 309.331 584.525 308.989 585.869 308.989C587.298 308.989 588.557 309.331 589.645 310.013C590.733 310.696 591.586 311.613 592.205 312.765C592.824 313.917 593.133 315.208 593.133 316.637C593.133 318.024 592.792 319.261 592.109 320.349C591.448 321.437 590.498 322.301 589.261 322.941C588.045 323.56 586.594 323.869 584.909 323.869ZM584.941 319.549C585.517 319.549 586.04 319.411 586.509 319.133C586.978 318.856 587.341 318.483 587.597 318.013C587.874 317.523 588.013 316.979 588.013 316.381C588.013 315.763 587.874 315.208 587.597 314.717C587.341 314.227 586.978 313.843 586.509 313.565C586.04 313.267 585.517 313.117 584.941 313.117C584.344 313.117 583.8 313.267 583.309 313.565C582.84 313.843 582.466 314.227 582.189 314.717C581.912 315.208 581.773 315.763 581.773 316.381C581.773 316.979 581.912 317.523 582.189 318.013C582.466 318.483 582.84 318.856 583.309 319.133C583.8 319.411 584.344 319.549 584.941 319.549Z" fill="black"/>
<path d="M578.853 376.863L587.173 359.007L592.773 358.175L584.549 376.863H578.853ZM576.613 359.199V354.463H592.773V358.175L587.269 359.199H576.613Z" fill="black"/>
<path d="M584.695 429.22C582.817 429.22 581.239 428.964 579.959 428.452C578.679 427.919 577.708 427.194 577.047 426.276C576.407 425.338 576.087 424.25 576.087 423.012C576.087 421.668 576.407 420.495 577.047 419.492C577.708 418.468 578.679 417.668 579.959 417.092C581.239 416.516 582.817 416.228 584.695 416.228C586.593 416.228 588.172 416.516 589.431 417.092C590.711 417.668 591.681 418.468 592.343 419.492C593.004 420.495 593.335 421.668 593.335 423.012C593.335 424.25 593.004 425.338 592.343 426.276C591.681 427.194 590.711 427.919 589.431 428.452C588.172 428.964 586.593 429.22 584.695 429.22ZM584.695 424.964C585.676 424.964 586.476 424.719 587.095 424.228C587.735 423.716 588.055 423.076 588.055 422.308C588.055 421.412 587.735 420.698 587.095 420.164C586.476 419.61 585.676 419.332 584.695 419.332C584.055 419.332 583.479 419.46 582.967 419.716C582.476 419.951 582.081 420.292 581.783 420.74C581.505 421.188 581.367 421.711 581.367 422.308C581.367 422.82 581.505 423.279 581.783 423.684C582.081 424.068 582.476 424.378 582.967 424.612C583.479 424.847 584.055 424.964 584.695 424.964ZM584.695 418.052C582.988 418.052 581.548 417.807 580.375 417.316C579.201 416.804 578.305 416.111 577.687 415.236C577.068 414.34 576.759 413.306 576.759 412.132C576.759 410.938 577.068 409.882 577.687 408.964C578.305 408.047 579.201 407.332 580.375 406.82C581.548 406.308 582.988 406.052 584.695 406.052C586.38 406.052 587.809 406.308 588.983 406.82C590.177 407.332 591.084 408.047 591.703 408.964C592.343 409.882 592.663 410.938 592.663 412.132C592.663 413.306 592.343 414.34 591.703 415.236C591.084 416.111 590.177 416.804 588.983 417.316C587.809 417.807 586.38 418.052 584.695 418.052ZM584.695 415.396C585.548 415.396 586.252 415.151 586.807 414.66C587.361 414.148 587.639 413.508 587.639 412.74C587.639 411.972 587.361 411.354 586.807 410.884C586.252 410.394 585.548 410.148 584.695 410.148C583.841 410.148 583.137 410.394 582.583 410.884C582.049 411.354 581.783 411.972 581.783 412.74C581.783 413.508 582.049 414.148 582.583 414.66C583.137 415.151 583.841 415.396 584.695 415.396Z" fill="black"/>
<path d="M124.569 69V49.352L125.081 46.6H129.465V69H124.569ZM119.961 54.28V49.608C120.537 49.6507 121.124 49.5227 121.721 49.224C122.34 48.9253 122.937 48.5307 123.513 48.04C124.111 47.528 124.633 47.0267 125.081 46.536L128.345 49.704C127.556 50.6 126.713 51.4213 125.817 52.168C124.921 52.8933 123.993 53.4587 123.033 53.864C122.073 54.248 121.049 54.3867 119.961 54.28Z" fill="black"/>
<path d="M71.2474 69L62.8634 46.6H67.9834L76.6874 69H71.2474ZM53.7754 69L62.4794 46.6H67.5994L59.2154 69H53.7754ZM57.8714 64.744V60.2H72.6234V64.744H57.8714Z" fill="#3572A5"/>
<path d="M71.2474 69L62.8634 46.6H67.9834L76.6874 69H71.2474ZM53.7754 69L62.4794 46.6H67.5994L59.2154 69H53.7754ZM57.8714 64.744V60.2H72.6234V64.744H57.8714Z" fill="#3572A5"/>
<path d="M71.2474 69L62.8634 46.6H67.9834L76.6874 69H71.2474ZM53.7754 69L62.4794 46.6H67.5994L59.2154 69H53.7754ZM57.8714 64.744V60.2H72.6234V64.744H57.8714Z" fill="#3572A5"/>
<path d="M154.011 225V202.6H161.851C163.387 202.6 164.742 202.835 165.915 203.304C167.089 203.773 168.006 204.488 168.667 205.448C169.329 206.408 169.659 207.624 169.659 209.096C169.659 209.885 169.446 210.632 169.019 211.336C168.614 212.019 168.049 212.637 167.323 213.192C168.347 213.725 169.126 214.429 169.659 215.304C170.214 216.157 170.491 217.213 170.491 218.472C170.491 219.88 170.171 221.075 169.531 222.056C168.891 223.016 168.006 223.752 166.875 224.264C165.745 224.755 164.422 225 162.907 225H154.011ZM159.035 220.456H162.331C163.206 220.456 163.899 220.232 164.411 219.784C164.923 219.315 165.179 218.717 165.179 217.992C165.179 217.224 164.913 216.627 164.379 216.2C163.846 215.752 163.11 215.528 162.171 215.528H159.035V220.456ZM159.035 211.4H161.691C162.502 211.4 163.153 211.197 163.643 210.792C164.134 210.365 164.379 209.779 164.379 209.032C164.379 208.264 164.113 207.677 163.579 207.272C163.067 206.845 162.374 206.632 161.499 206.632H159.035V211.4Z" fill="#3572A5"/>
<path d="M154.011 225V202.6H161.851C163.387 202.6 164.742 202.835 165.915 203.304C167.089 203.773 168.006 204.488 168.667 205.448C169.329 206.408 169.659 207.624 169.659 209.096C169.659 209.885 169.446 210.632 169.019 211.336C168.614 212.019 168.049 212.637 167.323 213.192C168.347 213.725 169.126 214.429 169.659 215.304C170.214 216.157 170.491 217.213 170.491 218.472C170.491 219.88 170.171 221.075 169.531 222.056C168.891 223.016 168.006 223.752 166.875 224.264C165.745 224.755 164.422 225 162.907 225H154.011ZM159.035 220.456H162.331C163.206 220.456 163.899 220.232 164.411 219.784C164.923 219.315 165.179 218.717 165.179 217.992C165.179 217.224 164.913 216.627 164.379 216.2C163.846 215.752 163.11 215.528 162.171 215.528H159.035V220.456ZM159.035 211.4H161.691C162.502 211.4 163.153 211.197 163.643 210.792C164.134 210.365 164.379 209.779 164.379 209.032C164.379 208.264 164.113 207.677 163.579 207.272C163.067 206.845 162.374 206.632 161.499 206.632H159.035V211.4Z" fill="#3572A5"/>
<path d="M154.011 225V202.6H161.851C163.387 202.6 164.742 202.835 165.915 203.304C167.089 203.773 168.006 204.488 168.667 205.448C169.329 206.408 169.659 207.624 169.659 209.096C169.659 209.885 169.446 210.632 169.019 211.336C168.614 212.019 168.049 212.637 167.323 213.192C168.347 213.725 169.126 214.429 169.659 215.304C170.214 216.157 170.491 217.213 170.491 218.472C170.491 219.88 170.171 221.075 169.531 222.056C168.891 223.016 168.006 223.752 166.875 224.264C165.745 224.755 164.422 225 162.907 225H154.011ZM159.035 220.456H162.331C163.206 220.456 163.899 220.232 164.411 219.784C164.923 219.315 165.179 218.717 165.179 217.992C165.179 217.224 164.913 216.627 164.379 216.2C163.846 215.752 163.11 215.528 162.171 215.528H159.035V220.456ZM159.035 211.4H161.691C162.502 211.4 163.153 211.197 163.643 210.792C164.134 210.365 164.379 209.779 164.379 209.032C164.379 208.264 164.113 207.677 163.579 207.272C163.067 206.845 162.374 206.632 161.499 206.632H159.035V211.4Z" fill="#3572A5"/>
<path d="M506.476 56V33.6H513.804C516.172 33.6 518.263 34.08 520.076 35.04C521.911 36 523.34 37.3227 524.364 39.008C525.388 40.672 525.9 42.6027 525.9 44.8C525.9 46.976 525.388 48.9067 524.364 50.592C523.34 52.2773 521.911 53.6 520.076 54.56C518.263 55.52 516.172 56 513.804 56H506.476ZM511.628 51.136H513.804C514.785 51.136 515.692 50.9867 516.524 50.688C517.356 50.368 518.081 49.9307 518.7 49.376C519.319 48.8 519.799 48.128 520.14 47.36C520.481 46.5707 520.652 45.7173 520.652 44.8C520.652 43.8827 520.481 43.04 520.14 42.272C519.799 41.4827 519.319 40.8107 518.7 40.256C518.081 39.68 517.356 39.2427 516.524 38.944C515.692 38.624 514.785 38.464 513.804 38.464H511.628V51.136Z" fill="#3572A5"/>
<path d="M506.476 56V33.6H513.804C516.172 33.6 518.263 34.08 520.076 35.04C521.911 36 523.34 37.3227 524.364 39.008C525.388 40.672 525.9 42.6027 525.9 44.8C525.9 46.976 525.388 48.9067 524.364 50.592C523.34 52.2773 521.911 53.6 520.076 54.56C518.263 55.52 516.172 56 513.804 56H506.476ZM511.628 51.136H513.804C514.785 51.136 515.692 50.9867 516.524 50.688C517.356 50.368 518.081 49.9307 518.7 49.376C519.319 48.8 519.799 48.128 520.14 47.36C520.481 46.5707 520.652 45.7173 520.652 44.8C520.652 43.8827 520.481 43.04 520.14 42.272C519.799 41.4827 519.319 40.8107 518.7 40.256C518.081 39.68 517.356 39.2427 516.524 38.944C515.692 38.624 514.785 38.464 513.804 38.464H511.628V51.136Z" fill="#3572A5"/>
<path d="M506.476 56V33.6H513.804C516.172 33.6 518.263 34.08 520.076 35.04C521.911 36 523.34 37.3227 524.364 39.008C525.388 40.672 525.9 42.6027 525.9 44.8C525.9 46.976 525.388 48.9067 524.364 50.592C523.34 52.2773 521.911 53.6 520.076 54.56C518.263 55.52 516.172 56 513.804 56H506.476ZM511.628 51.136H513.804C514.785 51.136 515.692 50.9867 516.524 50.688C517.356 50.368 518.081 49.9307 518.7 49.376C519.319 48.8 519.799 48.128 520.14 47.36C520.481 46.5707 520.652 45.7173 520.652 44.8C520.652 43.8827 520.481 43.04 520.14 42.272C519.799 41.4827 519.319 40.8107 518.7 40.256C518.081 39.68 517.356 39.2427 516.524 38.944C515.692 38.624 514.785 38.464 513.804 38.464H511.628V51.136Z" fill="#3572A5"/>
<path d="M176.232 69V65.288C176.232 64.712 176.446 64.0507 176.872 63.304C177.299 62.536 177.886 61.7573 178.632 60.968C179.4 60.1787 180.264 59.4533 181.224 58.792L184.04 56.872C184.467 56.5947 184.894 56.2747 185.32 55.912C185.747 55.528 186.099 55.1227 186.376 54.696C186.654 54.248 186.792 53.8 186.792 53.352C186.792 52.8827 186.675 52.4667 186.44 52.104C186.227 51.72 185.896 51.432 185.448 51.24C185.022 51.0267 184.456 50.92 183.752 50.92C183.219 50.92 182.739 51.0373 182.312 51.272C181.907 51.4853 181.566 51.784 181.288 52.168C181.032 52.5307 180.84 52.936 180.712 53.384L175.4 52.488C175.614 51.3787 176.072 50.344 176.776 49.384C177.502 48.424 178.451 47.656 179.624 47.08C180.819 46.4827 182.184 46.184 183.72 46.184C185.47 46.184 186.963 46.4933 188.2 47.112C189.438 47.7093 190.387 48.5413 191.048 49.608C191.731 50.6747 192.072 51.912 192.072 53.32C192.072 54.8133 191.656 56.104 190.824 57.192C190.014 58.28 188.936 59.2827 187.592 60.2L185.128 61.896C184.616 62.2373 184.147 62.6213 183.72 63.048C183.294 63.4747 182.92 63.9547 182.6 64.488H192.328V69H176.232Z" fill="black"/>
<path d="M242.927 69.384C241.519 69.384 240.228 69.1707 239.055 68.744C237.903 68.3173 236.943 67.6987 236.175 66.888C235.428 66.056 234.938 65.0427 234.703 63.848L239.567 62.664C239.695 62.92 239.855 63.2293 240.047 63.592C240.26 63.9547 240.57 64.2747 240.975 64.552C241.38 64.808 241.924 64.936 242.607 64.936C243.503 64.936 244.207 64.7013 244.719 64.232C245.231 63.7413 245.487 63.1013 245.487 62.312C245.487 61.8427 245.37 61.4053 245.135 61C244.922 60.5733 244.516 60.2427 243.919 60.008C243.343 59.752 242.522 59.624 241.455 59.624H239.791V56.296H241.263C242.522 56.296 243.706 56.456 244.815 56.776C245.946 57.0747 246.948 57.5227 247.823 58.12C248.698 58.7173 249.38 59.4213 249.871 60.232C250.383 61.0427 250.639 61.96 250.639 62.984C250.639 64.3493 250.276 65.512 249.551 66.472C248.826 67.432 247.876 68.1573 246.703 68.648C245.53 69.1387 244.271 69.384 242.927 69.384ZM239.791 58.568V55.464H241.455C242.799 55.464 243.748 55.24 244.303 54.792C244.858 54.344 245.135 53.736 245.135 52.968C245.135 52.52 245.028 52.1253 244.815 51.784C244.602 51.4427 244.303 51.176 243.919 50.984C243.535 50.7707 243.098 50.664 242.607 50.664C242.244 50.664 241.871 50.728 241.487 50.856C241.103 50.984 240.751 51.208 240.431 51.528C240.111 51.848 239.866 52.3067 239.695 52.904L234.895 51.752C235.13 50.536 235.642 49.5227 236.431 48.712C237.242 47.88 238.202 47.2613 239.311 46.856C240.42 46.4293 241.562 46.216 242.735 46.216C244.143 46.216 245.412 46.4827 246.543 47.016C247.695 47.528 248.602 48.2533 249.263 49.192C249.946 50.1093 250.287 51.1867 250.287 52.424C250.287 53.4907 250.02 54.408 249.487 55.176C248.975 55.944 248.282 56.584 247.407 57.096C246.554 57.5867 245.594 57.96 244.527 58.216C243.46 58.4507 242.372 58.568 241.263 58.568H239.791Z" fill="black"/>
<path d="M302.703 69V65.064H292.239V60.936L302.031 46.6H307.567V60.68H311.151V65.064H307.567V69H302.703ZM297.391 60.68H302.703V52.904L297.391 60.68Z" fill="black"/>
<path d="M360.122 69.384C359.013 69.384 357.893 69.192 356.762 68.808C355.631 68.424 354.618 67.8693 353.722 67.144C352.847 66.4187 352.229 65.5227 351.866 64.456L356.73 63.304C357.05 63.8587 357.477 64.2747 358.01 64.552C358.565 64.808 359.151 64.936 359.77 64.936C360.709 64.936 361.466 64.6587 362.042 64.104C362.639 63.528 362.938 62.76 362.938 61.8C362.938 60.9253 362.65 60.1893 362.074 59.592C361.519 58.9733 360.751 58.664 359.77 58.664C359.173 58.664 358.639 58.8027 358.17 59.08C357.722 59.3573 357.391 59.688 357.178 60.072L352.538 59.048L354.01 46.6H367.002V51.272H358.362L357.722 55.848C358.277 55.528 358.906 55.2827 359.61 55.112C360.314 54.92 361.082 54.824 361.914 54.824C363.066 54.8453 364.122 55.144 365.082 55.72C366.063 56.296 366.842 57.0853 367.418 58.088C367.994 59.0693 368.282 60.2107 368.282 61.512C368.282 63.0693 367.93 64.4453 367.226 65.64C366.522 66.8133 365.562 67.7307 364.346 68.392C363.13 69.0533 361.722 69.384 360.122 69.384Z" fill="black"/>
<path d="M418.86 69.384C417.367 69.384 416.087 69.1173 415.02 68.584C413.953 68.0507 413.079 67.3147 412.396 66.376C411.713 65.4373 411.201 64.3493 410.86 63.112C410.54 61.8533 410.38 60.4987 410.38 59.048C410.38 57.4267 410.54 55.848 410.86 54.312C411.201 52.776 411.735 51.4 412.46 50.184C413.207 48.968 414.177 48.008 415.372 47.304C416.588 46.5787 418.06 46.216 419.788 46.216C421.004 46.216 422.177 46.3867 423.308 46.728C424.439 47.0693 425.463 47.56 426.38 48.2L423.884 51.976C423.223 51.528 422.519 51.208 421.772 51.016C421.025 50.8027 420.364 50.696 419.788 50.696C418.38 50.696 417.249 51.3467 416.396 52.648C415.543 53.928 415.127 55.9867 415.148 58.824L414.124 58.216C414.615 57.1067 415.351 56.2107 416.332 55.528C417.313 54.8453 418.476 54.504 419.82 54.504C421.249 54.504 422.508 54.8453 423.596 55.528C424.684 56.2107 425.537 57.128 426.156 58.28C426.775 59.432 427.084 60.7227 427.084 62.152C427.084 63.5387 426.743 64.776 426.06 65.864C425.399 66.952 424.449 67.816 423.212 68.456C421.996 69.0747 420.545 69.384 418.86 69.384ZM418.892 65.064C419.468 65.064 419.991 64.9253 420.46 64.648C420.929 64.3707 421.292 63.9973 421.548 63.528C421.825 63.0373 421.964 62.4933 421.964 61.896C421.964 61.2773 421.825 60.7227 421.548 60.232C421.292 59.7413 420.929 59.3573 420.46 59.08C419.991 58.7813 419.468 58.632 418.892 58.632C418.295 58.632 417.751 58.7813 417.26 59.08C416.791 59.3573 416.417 59.7413 416.14 60.232C415.863 60.7227 415.724 61.2773 415.724 61.896C415.724 62.4933 415.863 63.0373 416.14 63.528C416.417 63.9973 416.791 64.3707 417.26 64.648C417.751 64.9253 418.295 65.064 418.892 65.064Z" fill="black"/>
<path d="M162.067 378.384C159.848 378.384 157.885 377.893 156.179 376.912C154.493 375.909 153.16 374.544 152.179 372.816C151.219 371.067 150.739 369.061 150.739 366.8C150.739 364.539 151.219 362.544 152.179 360.816C153.16 359.067 154.493 357.701 156.179 356.72C157.885 355.717 159.848 355.216 162.067 355.216C163.688 355.216 165.171 355.504 166.515 356.08C167.88 356.635 169.053 357.424 170.035 358.448C171.037 359.472 171.805 360.656 172.339 362L167.507 363.632C167.187 362.885 166.749 362.235 166.195 361.68C165.661 361.125 165.043 360.699 164.339 360.4C163.656 360.101 162.899 359.952 162.067 359.952C160.893 359.952 159.848 360.24 158.931 360.816C158.013 361.392 157.299 362.203 156.787 363.248C156.275 364.272 156.019 365.456 156.019 366.8C156.019 368.144 156.275 369.339 156.787 370.384C157.32 371.408 158.045 372.219 158.963 372.816C159.901 373.392 160.968 373.68 162.163 373.68C163.037 373.68 163.816 373.52 164.499 373.2C165.181 372.88 165.768 372.432 166.259 371.856C166.771 371.28 167.208 370.619 167.571 369.872L172.403 371.504C171.891 372.869 171.133 374.075 170.131 375.12C169.128 376.144 167.944 376.944 166.579 377.52C165.213 378.096 163.709 378.384 162.067 378.384Z" fill="#3572A5"/>
<path d="M162.067 378.384C159.848 378.384 157.885 377.893 156.179 376.912C154.493 375.909 153.16 374.544 152.179 372.816C151.219 371.067 150.739 369.061 150.739 366.8C150.739 364.539 151.219 362.544 152.179 360.816C153.16 359.067 154.493 357.701 156.179 356.72C157.885 355.717 159.848 355.216 162.067 355.216C163.688 355.216 165.171 355.504 166.515 356.08C167.88 356.635 169.053 357.424 170.035 358.448C171.037 359.472 171.805 360.656 172.339 362L167.507 363.632C167.187 362.885 166.749 362.235 166.195 361.68C165.661 361.125 165.043 360.699 164.339 360.4C163.656 360.101 162.899 359.952 162.067 359.952C160.893 359.952 159.848 360.24 158.931 360.816C158.013 361.392 157.299 362.203 156.787 363.248C156.275 364.272 156.019 365.456 156.019 366.8C156.019 368.144 156.275 369.339 156.787 370.384C157.32 371.408 158.045 372.219 158.963 372.816C159.901 373.392 160.968 373.68 162.163 373.68C163.037 373.68 163.816 373.52 164.499 373.2C165.181 372.88 165.768 372.432 166.259 371.856C166.771 371.28 167.208 370.619 167.571 369.872L172.403 371.504C171.891 372.869 171.133 374.075 170.131 375.12C169.128 376.144 167.944 376.944 166.579 377.52C165.213 378.096 163.709 378.384 162.067 378.384Z" fill="#3572A5"/>
<path d="M162.067 378.384C159.848 378.384 157.885 377.893 156.179 376.912C154.493 375.909 153.16 374.544 152.179 372.816C151.219 371.067 150.739 369.061 150.739 366.8C150.739 364.539 151.219 362.544 152.179 360.816C153.16 359.067 154.493 357.701 156.179 356.72C157.885 355.717 159.848 355.216 162.067 355.216C163.688 355.216 165.171 355.504 166.515 356.08C167.88 356.635 169.053 357.424 170.035 358.448C171.037 359.472 171.805 360.656 172.339 362L167.507 363.632C167.187 362.885 166.749 362.235 166.195 361.68C165.661 361.125 165.043 360.699 164.339 360.4C163.656 360.101 162.899 359.952 162.067 359.952C160.893 359.952 159.848 360.24 158.931 360.816C158.013 361.392 157.299 362.203 156.787 363.248C156.275 364.272 156.019 365.456 156.019 366.8C156.019 368.144 156.275 369.339 156.787 370.384C157.32 371.408 158.045 372.219 158.963 372.816C159.901 373.392 160.968 373.68 162.163 373.68C163.037 373.68 163.816 373.52 164.499 373.2C165.181 372.88 165.768 372.432 166.259 371.856C166.771 371.28 167.208 370.619 167.571 369.872L172.403 371.504C171.891 372.869 171.133 374.075 170.131 375.12C169.128 376.144 167.944 376.944 166.579 377.52C165.213 378.096 163.709 378.384 162.067 378.384Z" fill="#3572A5"/>
</svg>
