<svg width="54" height="54" viewBox="0 0 54 54" fill="none" xmlns="http://www.w3.org/2000/svg">
<rect width="54" height="54" rx="20" fill="#8EC07C"/>
<path d="M12 6V46M42 6V46" stroke="#2F2F2F" stroke-width="2"/>
<path d="M25.201 42L21.795 32.9H23.875L27.411 42H25.201ZM18.103 42L21.639 32.9H23.719L20.313 42H18.103ZM19.767 40.271V38.425H25.76V40.271H19.767ZM31.7455 42.156C31.0002 42.156 30.3372 41.9567 29.7565 41.558C29.1758 41.1507 28.7208 40.596 28.3915 39.894C28.0708 39.1833 27.9105 38.3687 27.9105 37.45C27.9105 36.5313 28.0708 35.721 28.3915 35.019C28.7208 34.3083 29.1715 33.7537 29.7435 33.355C30.3242 32.9477 30.9872 32.744 31.7325 32.744C32.4865 32.744 33.1538 32.9477 33.7345 33.355C34.3152 33.7537 34.7702 34.3083 35.0995 35.019C35.4375 35.721 35.6065 36.5313 35.6065 37.45C35.6065 38.3687 35.4418 39.1833 35.1125 39.894C34.7832 40.596 34.3282 41.1507 33.7475 41.558C33.1668 41.9567 32.4995 42.156 31.7455 42.156ZM31.7585 40.258C32.1052 40.258 32.4128 40.1367 32.6815 39.894C32.9588 39.6513 33.1755 39.322 33.3315 38.906C33.4875 38.4813 33.5655 37.996 33.5655 37.45C33.5655 36.8953 33.4875 36.4057 33.3315 35.981C33.1755 35.5563 32.9588 35.2227 32.6815 34.98C32.4042 34.7373 32.0878 34.616 31.7325 34.616C31.3858 34.616 31.0782 34.7373 30.8095 34.98C30.5408 35.2227 30.3285 35.5563 30.1725 35.981C30.0252 36.4057 29.9515 36.8953 29.9515 37.45C29.9515 37.996 30.0252 38.4813 30.1725 38.906C30.3285 39.3307 30.5408 39.6643 30.8095 39.907C31.0868 40.141 31.4032 40.258 31.7585 40.258Z" fill="#2F2F2F"/>
<rect x="14.9253" y="6.70312" width="23.9062" height="1.40625" rx="0.703125" stroke="#2F2F2F" stroke-width="1.40625"/>
</svg>
